{"notes":[{"pitch":67,"start":0.0,"end":0.5,"velocity":98},{"pitch":62,"start":0.5,"end":1.0,"velocity":98},{"pitch":67,"start":1.0,"end":1.5,"velocity":97},{"pitch":62,"start":1.5,"end":2.0,"velocity":97},{"pitch":67,"start":2.0,"end":2.5,"velocity":99},{"pitch":62,"start":2.5,"end":3.0,"velocity":98},{"pitch":67,"start":3.0,"end":3.5,"velocity":97},{"pitch":62,"start":3.5,"end":4.0,"velocity":98},{"pitch":67,"start":4.0,"end":4.5,"velocity":99},{"pitch":62,"start":4.5,"end":5.0,"velocity":100},{"pitch":67,"start":5.0,"end":5.5,"velocity":99},{"pitch":62,"start":5.5,"end":6.0,"velocity":98},{"pitch":67,"start":6.0,"end":6.5,"velocity":96},{"pitch":62,"start":6.5,"end":7.0,"velocity":94},{"pitch":67,"start":7.0,"end":7.5,"velocity":91},{"pitch":62,"start":7.5,"end":8.0,"velocity":88},{"pitch":67,"start":8.0,"end":8.5,"velocity":88},{"pitch":62,"start":8.5,"end":9.0,"velocity":90},{"pitch":67,"start":9.0,"end":9.5,"velocity":85},{"pitch":62,"start":9.5,"end":10.0,"velocity":82},{"pitch":67,"start":10.0,"end":10.5,"velocity":87},{"pitch":62,"start":10.5,"end":11.0,"velocity":88},{"pitch":67,"start":11.0,"end":11.5,"velocity":84},{"pitch":62,"start":11.5,"end":12.0,"velocity":84},{"pitch":67,"start":12.0,"end":12.5,"velocity":86},{"pitch":62,"start":12.5,"end":13.0,"velocity":88},{"pitch":67,"start":13.0,"end":13.5,"velocity":92},{"pitch":62,"start":13.5,"end":14.0,"velocity":94},{"pitch":67,"start":14.0,"end":14.5,"velocity":95},{"pitch":62,"start":14.5,"end":15.0,"velocity":96},{"pitch":67,"start":15.0,"end":15.5,"velocity":95},{"pitch":62,"start":15.5,"end":16.0,"velocity":94},{"pitch":67,"start":16.0,"end":16.5,"velocity":94},{"pitch":62,"start":16.5,"end":17.0,"velocity":94},{"pitch":67,"start":17.0,"end":17.5,"velocity":93},{"pitch":62,"start":17.5,"end":18.0,"velocity":92},{"pitch":67,"start":18.0,"end":18.5,"velocity":93},{"pitch":62,"start":18.5,"end":19.0,"velocity":95},{"pitch":67,"start":19.0,"end":19.5,"velocity":88},{"pitch":62,"start":19.5,"end":20.0,"velocity":87},{"pitch":67,"start":20.0,"end":20.5,"velocity":86},{"pitch":62,"start":20.5,"end":21.0,"velocity":86},{"pitch":67,"start":21.0,"end":21.5,"velocity":87},{"pitch":62,"start":21.5,"end":22.0,"velocity":87},{"pitch":67,"start":22.0,"end":22.5,"velocity":87},{"pitch":62,"start":22.5,"end":23.0,"velocity":87},{"pitch":67,"start":23.0,"end":23.5,"velocity":87},{"pitch":62,"start":23.5,"end":24.0,"velocity":88},{"pitch":67,"start":24.0,"end":24.5,"velocity":88},{"pitch":62,"start":24.5,"end":25.0,"velocity":88},{"pitch":67,"start":25.0,"end":25.5,"velocity":87},{"pitch":62,"start":25.5,"end":26.0,"velocity":85},{"pitch":67,"start":26.0,"end":26.5,"velocity":85},{"pitch":62,"start":26.5,"end":27.0,"velocity":87},{"pitch":67,"start":27.0,"end":27.5,"velocity":89},{"pitch":62,"start":27.5,"end":28.0,"velocity":88},{"pitch":67,"start":28.0,"end":28.5,"velocity":83},{"pitch":62,"start":28.5,"end":29.0,"velocity":92},{"pitch":67,"start":29.0,"end":29.5,"velocity":92},{"pitch":62,"start":29.5,"end":30.0,"velocity":91},{"pitch":67,"start":30.0,"end":30.5,"velocity":88},{"pitch":62,"start":30.5,"end":31.0,"velocity":87},{"pitch":67,"start":31.0,"end":31.5,"velocity":85},{"pitch":62,"start":31.5,"end":32.0,"velocity":83},{"pitch":67,"start":32.0,"end":32.5,"velocity":83},{"pitch":62,"start":32.5,"end":33.0,"velocity":82},{"pitch":67,"start":33.0,"end":33.5,"velocity":80},{"pitch":62,"start":33.5,"end":34.0,"velocity":81},{"pitch":67,"start":34.0,"end":34.5,"velocity":82},{"pitch":62,"start":34.5,"end":35.0,"velocity":83},{"pitch":67,"start":35.0,"end":35.5,"velocity":86},{"pitch":62,"start":35.5,"end":36.0,"velocity":87},{"pitch":67,"start":36.0,"end":36.5,"velocity":85},{"pitch":62,"start":36.5,"end":37.0,"velocity":83},{"pitch":67,"start":37.0,"end":37.5,"velocity":83},{"pitch":62,"start":37.5,"end":38.0,"velocity":82},{"pitch":67,"start":38.0,"end":38.5,"velocity":96},{"pitch":62,"start":38.5,"end":39.0,"velocity":96},{"pitch":67,"start":39.0,"end":39.5,"velocity":98},{"pitch":62,"start":39.5,"end":40.0,"velocity":98},{"pitch":67,"start":40.0,"end":40.5,"velocity":99},{"pitch":62,"start":40.5,"end":41.0,"velocity":102},{"pitch":67,"start":41.0,"end":41.5,"velocity":99},{"pitch":62,"start":41.5,"end":42.0,"velocity":96},{"pitch":67,"start":42.0,"end":42.5,"velocity":95},{"pitch":62,"start":42.5,"end":43.0,"velocity":91},{"pitch":67,"start":43.0,"end":43.5,"velocity":88},{"pitch":62,"start":43.5,"end":44.0,"velocity":86},{"pitch":67,"start":44.0,"end":44.5,"velocity":87},{"pitch":62,"start":44.5,"end":45.0,"velocity":91},{"pitch":67,"start":45.0,"end":45.5,"velocity":95},{"pitch":62,"start":45.5,"end":46.0,"velocity":96},{"pitch":67,"start":46.0,"end":46.5,"velocity":98},{"pitch":62,"start":46.5,"end":47.0,"velocity":97},{"pitch":67,"start":47.0,"end":47.5,"velocity":98},{"pitch":62,"start":47.5,"end":48.0,"velocity":100},{"pitch":67,"start":48.0,"end":48.5,"velocity":97},{"pitch":62,"start":48.5,"end":49.0,"velocity":94},{"pitch":67,"start":49.0,"end":49.5,"velocity":92},{"pitch":62,"start":49.5,"end":50.0,"velocity":91},{"pitch":67,"start":50.0,"end":50.5,"velocity":90},{"pitch":62,"start":50.5,"end":51.0,"velocity":90},{"pitch":67,"start":51.0,"end":51.5,"velocity":94},{"pitch":62,"start":51.5,"end":52.0,"velocity":103},{"pitch":67,"start":52.0,"end":52.5,"velocity":106},{"pitch":62,"start":52.5,"end":53.0,"velocity":108},{"pitch":67,"start":53.0,"end":53.5,"velocity":107},{"pitch":62,"start":53.5,"end":54.0,"velocity":106},{"pitch":67,"start":54.0,"end":54.5,"velocity":105},{"pitch":62,"start":54.5,"end":55.0,"velocity":101},{"pitch":67,"start":55.0,"end":55.5,"velocity":99},{"pitch":62,"start":55.5,"end":56.0,"velocity":98},{"pitch":67,"start":56.0,"end":56.5,"velocity":97},{"pitch":62,"start":56.5,"end":57.0,"velocity":94},{"pitch":67,"start":57.0,"end":57.5,"velocity":81},{"pitch":62,"start":57.5,"end":58.0,"velocity":83},{"pitch":67,"start":58.0,"end":58.5,"velocity":89},{"pitch":62,"start":58.5,"end":59.0,"velocity":90},{"pitch":67,"start":59.0,"end":59.5,"velocity":95},{"pitch":62,"start":59.5,"end":60.0,"velocity":98},{"pitch":67,"start":60.0,"end":60.5,"velocity":99},{"pitch":62,"start":60.5,"end":61.0,"velocity":97},{"pitch":67,"start":61.0,"end":61.5,"velocity":96},{"pitch":62,"start":61.5,"end":62.0,"velocity":92},{"pitch":67,"start":62.0,"end":62.5,"velocity":90},{"pitch":62,"start":62.5,"end":63.0,"velocity":92},{"pitch":67,"start":63.0,"end":63.5,"velocity":86},{"pitch":62,"start":63.5,"end":64.0,"velocity":79},{"pitch":67,"start":64.0,"end":64.5,"velocity":71},{"pitch":62,"start":64.5,"end":65.0,"velocity":73},{"pitch":67,"start":65.0,"end":65.5,"velocity":72},{"pitch":62,"start":65.5,"end":66.0,"velocity":78},{"pitch":67,"start":66.0,"end":66.5,"velocity":90},{"pitch":62,"start":66.5,"end":67.0,"velocity":66},{"pitch":67,"start":67.0,"end":67.5,"velocity":62},{"pitch":62,"start":67.5,"end":68.0,"velocity":62},{"pitch":67,"start":68.0,"end":68.5,"velocity":63},{"pitch":62,"start":68.5,"end":69.0,"velocity":63},{"pitch":67,"start":69.0,"end":69.5,"velocity":62},{"pitch":62,"start":69.5,"end":70.0,"velocity":63},{"pitch":67,"start":70.0,"end":70.5,"velocity":65},{"pitch":62,"start":70.5,"end":71.0,"velocity":62},{"pitch":67,"start":71.0,"end":71.5,"velocity":63},{"pitch":62,"start":71.5,"end":72.0,"velocity":67},{"pitch":67,"start":72.0,"end":72.5,"velocity":69},{"pitch":62,"start":72.5,"end":73.0,"velocity":66},{"pitch":67,"start":73.0,"end":73.5,"velocity":66},{"pitch":62,"start":73.5,"end":74.0,"velocity":65},{"pitch":67,"start":74.0,"end":74.5,"velocity":63},{"pitch":62,"start":74.5,"end":75.0,"velocity":62},{"pitch":67,"start":75.0,"end":75.5,"velocity":62},{"pitch":62,"start":75.5,"end":76.0,"velocity":70},{"pitch":69,"start":76.0,"end":76.5,"velocity":60},{"pitch":64,"start":76.5,"end":77.0,"velocity":61},{"pitch":69,"start":77.0,"end":77.5,"velocity":63},{"pitch":64,"start":77.5,"end":78.0,"velocity":63},{"pitch":69,"start":78.0,"end":78.5,"velocity":63},{"pitch":64,"start":78.5,"end":79.0,"velocity":64},{"pitch":69,"start":79.0,"end":79.5,"velocity":62},{"pitch":64,"start":79.5,"end":80.0,"velocity":61},{"pitch":69,"start":80.0,"end":80.5,"velocity":61},{"pitch":64,"start":80.5,"end":81.0,"velocity":61},{"pitch":69,"start":81.0,"end":81.5,"velocity":62},{"pitch":64,"start":81.5,"end":82.0,"velocity":60},{"pitch":69,"start":82.0,"end":82.5,"velocity":60},{"pitch":64,"start":82.5,"end":83.0,"velocity":60},{"pitch":69,"start":83.0,"end":83.5,"velocity":59},{"pitch":64,"start":83.5,"end":84.0,"velocity":59},{"pitch":69,"start":84.0,"end":84.5,"velocity":60},{"pitch":64,"start":84.5,"end":85.0,"velocity":60},{"pitch":69,"start":85.0,"end":85.5,"velocity":62},{"pitch":64,"start":85.5,"end":86.0,"velocity":86},{"pitch":69,"start":86.0,"end":86.5,"velocity":76},{"pitch":64,"start":86.5,"end":87.0,"velocity":66},{"pitch":69,"start":87.0,"end":87.5,"velocity":67},{"pitch":64,"start":87.5,"end":88.0,"velocity":64},{"pitch":69,"start":88.0,"end":88.5,"velocity":64},{"pitch":64,"start":88.5,"end":89.0,"velocity":64},{"pitch":69,"start":89.0,"end":89.5,"velocity":66},{"pitch":64,"start":89.5,"end":90.0,"velocity":64},{"pitch":69,"start":90.0,"end":90.5,"velocity":66},{"pitch":64,"start":90.5,"end":91.0,"velocity":67},{"pitch":69,"start":91.0,"end":91.5,"velocity":77},{"pitch":64,"start":91.5,"end":92.0,"velocity":83},{"pitch":69,"start":92.0,"end":92.5,"velocity":72},{"pitch":64,"start":92.5,"end":93.0,"velocity":68},{"pitch":69,"start":93.0,"end":93.5,"velocity":69},{"pitch":64,"start":93.5,"end":94.0,"velocity":75},{"pitch":69,"start":94.0,"end":94.5,"velocity":64},{"pitch":64,"start":94.5,"end":95.0,"velocity":62},{"pitch":69,"start":95.0,"end":95.5,"velocity":73},{"pitch":64,"start":95.5,"end":96.0,"velocity":80},{"pitch":69,"start":96.0,"end":96.5,"velocity":88},{"pitch":64,"start":96.5,"end":97.0,"velocity":87},{"pitch":69,"start":97.0,"end":97.5,"velocity":73},{"pitch":64,"start":97.5,"end":98.0,"velocity":65},{"pitch":69,"start":98.0,"end":98.5,"velocity":82},{"pitch":64,"start":98.5,"end":99.0,"velocity":76},{"pitch":69,"start":99.0,"end":99.5,"velocity":62},{"pitch":64,"start":99.5,"end":100.0,"velocity":62},{"pitch":69,"start":100.0,"end":100.5,"velocity":59},{"pitch":64,"start":100.5,"end":101.0,"velocity":60},{"pitch":69,"start":101.0,"end":101.5,"velocity":60},{"pitch":64,"start":101.5,"end":102.0,"velocity":67},{"pitch":69,"start":102.0,"end":102.5,"velocity":77},{"pitch":64,"start":102.5,"end":103.0,"velocity":82},{"pitch":69,"start":103.0,"end":103.5,"velocity":83},{"pitch":64,"start":103.5,"end":104.0,"velocity":85},{"pitch":69,"start":104.0,"end":104.5,"velocity":86},{"pitch":64,"start":104.5,"end":105.0,"velocity":73},{"pitch":69,"start":105.0,"end":105.5,"velocity":76},{"pitch":64,"start":105.5,"end":106.0,"velocity":79},{"pitch":69,"start":106.0,"end":106.5,"velocity":82},{"pitch":64,"start":106.5,"end":107.0,"velocity":82},{"pitch":69,"start":107.0,"end":107.5,"velocity":73},{"pitch":64,"start":107.5,"end":108.0,"velocity":66},{"pitch":69,"start":108.0,"end":108.5,"velocity":64},{"pitch":64,"start":108.5,"end":109.0,"velocity":59},{"pitch":69,"start":109.0,"end":109.5,"velocity":58},{"pitch":64,"start":109.5,"end":110.0,"velocity":68},{"pitch":69,"start":110.0,"end":110.5,"velocity":83},{"pitch":64,"start":110.5,"end":111.0,"velocity":87},{"pitch":69,"start":111.0,"end":111.5,"velocity":79},{"pitch":64,"start":111.5,"end":112.0,"velocity":71},{"pitch":69,"start":112.0,"end":112.5,"velocity":65},{"pitch":64,"start":112.5,"end":113.0,"velocity":60},{"pitch":69,"start":113.0,"end":113.5,"velocity":65},{"pitch":64,"start":113.5,"end":114.0,"velocity":71},{"pitch":69,"start":114.0,"end":114.5,"velocity":55},{"pitch":64,"start":114.5,"end":115.0,"velocity":56},{"pitch":69,"start":115.0,"end":115.5,"velocity":56},{"pitch":64,"start":115.5,"end":116.0,"velocity":58},{"pitch":69,"start":116.0,"end":116.5,"velocity":59},{"pitch":64,"start":116.5,"end":117.0,"velocity":62},{"pitch":69,"start":117.0,"end":117.5,"velocity":70},{"pitch":64,"start":117.5,"end":118.0,"velocity":67},{"pitch":69,"start":118.0,"end":118.5,"velocity":73},{"pitch":64,"start":118.5,"end":119.0,"velocity":78},{"pitch":69,"start":119.0,"end":119.5,"velocity":79},{"pitch":64,"start":119.5,"end":120.0,"velocity":81},{"pitch":69,"start":120.0,"end":120.5,"velocity":76},{"pitch":64,"start":120.5,"end":121.0,"velocity":73},{"pitch":69,"start":121.0,"end":121.5,"velocity":80},{"pitch":64,"start":121.5,"end":122.0,"velocity":85},{"pitch":69,"start":122.0,"end":122.5,"velocity":84},{"pitch":64,"start":122.5,"end":123.0,"velocity":80},{"pitch":69,"start":123.0,"end":123.5,"velocity":77}],"tempo_bpm":107}