{"notes":[{"pitch":60,"start":0.0,"end":1.0,"velocity":90},{"pitch":57,"start":1.0,"end":2.0,"velocity":90},{"pitch":62,"start":2.0,"end":3.0,"velocity":90},{"pitch":60,"start":3.0,"end":4.0,"velocity":90},{"pitch":60,"start":4.0,"end":5.0,"velocity":90},{"pitch":55,"start":5.0,"end":6.0,"velocity":90},{"pitch":57,"start":6.0,"end":7.0,"velocity":90},{"pitch":53,"start":7.0,"end":8.0,"velocity":90},{"pitch":53,"start":8.0,"end":9.0,"velocity":90},{"pitch":52,"start":9.0,"end":10.0,"velocity":90},{"pitch":55,"start":10.0,"end":11.0,"velocity":90},{"pitch":50,"start":11.0,"end":12.0,"velocity":90},{"pitch":50,"start":12.0,"end":13.0,"velocity":90},{"pitch":47,"start":13.0,"end":14.0,"velocity":90},{"pitch":52,"start":14.0,"end":15.0,"velocity":90},{"pitch":50,"start":15.0,"end":16.0,"velocity":90},{"pitch":50,"start":16.0,"end":17.0,"velocity":90},{"pitch":45,"start":17.0,"end":18.0,"velocity":90},{"pitch":47,"start":18.0,"end":19.0,"velocity":90},{"pitch":43,"start":19.0,"end":20.0,"velocity":90},{"pitch":43,"start":20.0,"end":21.0,"velocity":90},{"pitch":41,"start":21.0,"end":22.0,"velocity":90},{"pitch":45,"start":22.0,"end":23.0,"velocity":90}],"tempo_bpm":135}