{"notes":[{"pitch":27,"start":0.25,"end":1.0,"velocity":52},{"pitch":29,"start":1.0,"end":1.5,"velocity":66},{"pitch":29,"start":1.5,"end":2.0,"velocity":56},{"pitch":29,"start":2.0,"end":2.25,"velocity":52},{"pitch":29,"start":2.25,"end":3.0,"velocity":51},{"pitch":29,"start":3.0,"end":3.5,"velocity":51},{"pitch":29,"start":3.5,"end":4.0,"velocity":52},{"pitch":29,"start":4.0,"end":4.25,"velocity":51},{"pitch":29,"start":4.25,"end":5.0,"velocity":50},{"pitch":29,"start":5.0,"end":5.5,"velocity":50},{"pitch":29,"start":5.5,"end":6.0,"velocity":54},{"pitch":29,"start":6.0,"end":6.25,"velocity":52},{"pitch":29,"start":6.25,"end":7.0,"velocity":51},{"pitch":29,"start":7.0,"end":7.5,"velocity":57},{"pitch":29,"start":7.5,"end":8.0,"velocity":50},{"pitch":29,"start":8.0,"end":8.25,"velocity":56},{"pitch":32,"start":9.0,"end":9.5,"velocity":58},{"pitch":29,"start":9.5,"end":10.0,"velocity":63},{"pitch":31,"start":10.0,"end":10.25,"velocity":65},{"pitch":31,"start":10.25,"end":11.0,"velocity":76},{"pitch":31,"start":11.0,"end":11.5,"velocity":75},{"pitch":31,"start":11.5,"end":12.0,"velocity":73},{"pitch":31,"start":12.0,"end":12.25,"velocity":71},{"pitch":29,"start":12.25,"end":13.0,"velocity":69},{"pitch":29,"start":13.0,"end":13.5,"velocity":55},{"pitch":29,"start":13.5,"end":14.0,"velocity":52},{"pitch":29,"start":14.0,"end":14.25,"velocity":53},{"pitch":27,"start":14.25,"end":15.0,"velocity":60},{"pitch":27,"start":15.0,"end":15.5,"velocity":50},{"pitch":27,"start":15.5,"end":16.0,"velocity":50},{"pitch":27,"start":16.0,"end":16.5,"velocity":50},{"pitch":27,"start":16.5,"end":16.75,"velocity":50},{"pitch":27,"start":17.0,"end":17.75,"velocity":50},{"pitch":27,"start":17.75,"end":18.0,"velocity":52},{"pitch":27,"start":18.0,"end":18.5,"velocity":61},{"pitch":29,"start":18.5,"end":18.75,"velocity":81},{"pitch":27,"start":18.75,"end":19.0,"velocity":59},{"pitch":29,"start":19.0,"end":19.75,"velocity":73},{"pitch":27,"start":19.75,"end":20.0,"velocity":89},{"pitch":29,"start":20.0,"end":20.5,"velocity":90},{"pitch":27,"start":20.5,"end":20.75,"velocity":84},{"pitch":32,"start":20.75,"end":21.0,"velocity":66},{"pitch":29,"start":21.0,"end":21.75,"velocity":62},{"pitch":31,"start":21.75,"end":22.0,"velocity":78},{"pitch":29,"start":22.0,"end":22.5,"velocity":61},{"pitch":29,"start":22.5,"end":22.75,"velocity":61},{"pitch":27,"start":22.75,"end":23.0,"velocity":72},{"pitch":32,"start":23.0,"end":23.75,"velocity":64},{"pitch":31,"start":24.0,"end":24.5,"velocity":72},{"pitch":29,"start":24.5,"end":24.75,"velocity":78},{"pitch":31,"start":24.75,"end":25.0,"velocity":74},{"pitch":27,"start":25.0,"end":25.75,"velocity":65},{"pitch":31,"start":25.75,"end":26.0,"velocity":60},{"pitch":31,"start":26.0,"end":26.5,"velocity":79},{"pitch":31,"start":26.5,"end":26.75,"velocity":58},{"pitch":31,"start":26.75,"end":27.0,"velocity":53},{"pitch":31,"start":27.0,"end":27.75,"velocity":50},{"pitch":31,"start":27.75,"end":28.0,"velocity":50},{"pitch":31,"start":28.0,"end":28.5,"velocity":50},{"pitch":31,"start":28.5,"end":28.75,"velocity":50},{"pitch":31,"start":28.75,"end":29.25,"velocity":50},{"pitch":31,"start":29.25,"end":29.75,"velocity":50},{"pitch":31,"start":29.75,"end":30.25,"velocity":50},{"pitch":31,"start":30.25,"end":30.75,"velocity":50},{"pitch":31,"start":31.25,"end":31.75,"velocity":53},{"pitch":31,"start":31.75,"end":32.25,"velocity":64},{"pitch":29,"start":32.25,"end":32.75,"velocity":56},{"pitch":29,"start":32.75,"end":33.25,"velocity":56},{"pitch":29,"start":33.25,"end":33.75,"velocity":65},{"pitch":29,"start":33.75,"end":34.25,"velocity":65},{"pitch":29,"start":34.25,"end":34.75,"velocity":60},{"pitch":29,"start":34.75,"end":35.25,"velocity":63},{"pitch":29,"start":35.25,"end":35.75,"velocity":61},{"pitch":29,"start":35.75,"end":36.25,"velocity":66},{"pitch":29,"start":36.25,"end":36.75,"velocity":54},{"pitch":29,"start":36.75,"end":37.25,"velocity":50},{"pitch":29,"start":37.25,"end":37.75,"velocity":50},{"pitch":29,"start":37.75,"end":38.25,"velocity":50},{"pitch":29,"start":38.25,"end":38.75,"velocity":50},{"pitch":29,"start":38.75,"end":39.25,"velocity":50},{"pitch":29,"start":39.75,"end":40.25,"velocity":50},{"pitch":29,"start":40.25,"end":40.75,"velocity":51},{"pitch":29,"start":40.75,"end":41.25,"velocity":50},{"pitch":29,"start":41.25,"end":41.75,"velocity":50},{"pitch":29,"start":41.75,"end":42.25,"velocity":50},{"pitch":29,"start":42.25,"end":42.75,"velocity":50},{"pitch":29,"start":42.75,"end":43.25,"velocity":50},{"pitch":29,"start":43.25,"end":43.75,"velocity":50},{"pitch":29,"start":43.75,"end":44.25,"velocity":50},{"pitch":29,"start":44.25,"end":44.75,"velocity":50},{"pitch":29,"start":44.75,"end":45.0,"velocity":50},{"pitch":29,"start":45.0,"end":45.75,"velocity":50},{"pitch":29,"start":45.75,"end":46.25,"velocity":73},{"pitch":29,"start":46.25,"end":46.75,"velocity":96},{"pitch":29,"start":46.75,"end":47.0,"velocity":95},{"pitch":29,"start":47.0,"end":47.75,"velocity":94},{"pitch":29,"start":48.25,"end":48.75,"velocity":92},{"pitch":29,"start":48.75,"end":49.0,"velocity":92},{"pitch":29,"start":49.0,"end":49.75,"velocity":93},{"pitch":29,"start":49.75,"end":50.25,"velocity":95},{"pitch":29,"start":50.25,"end":50.75,"velocity":88},{"pitch":29,"start":50.75,"end":51.0,"velocity":50},{"pitch":29,"start":51.0,"end":51.75,"velocity":50},{"pitch":29,"start":51.75,"end":52.25,"velocity":50},{"pitch":29,"start":52.25,"end":52.75,"velocity":50},{"pitch":29,"start":52.75,"end":53.0,"velocity":50},{"pitch":29,"start":53.0,"end":53.75,"velocity":50},{"pitch":29,"start":53.75,"end":54.25,"velocity":53},{"pitch":29,"start":54.25,"end":54.75,"velocity":50},{"pitch":29,"start":54.75,"end":55.0,"velocity":97},{"pitch":29,"start":55.0,"end":55.75,"velocity":104},{"pitch":29,"start":55.75,"end":56.25,"velocity":107},{"pitch":29,"start":56.75,"end":57.0,"velocity":107},{"pitch":29,"start":57.0,"end":57.75,"velocity":106},{"pitch":29,"start":57.75,"end":58.25,"velocity":106},{"pitch":29,"start":58.25,"end":58.75,"velocity":107},{"pitch":32,"start":58.75,"end":59.0,"velocity":105},{"pitch":31,"start":59.0,"end":59.75,"velocity":79},{"pitch":31,"start":59.75,"end":60.25,"velocity":50},{"pitch":31,"start":60.25,"end":60.75,"velocity":50},{"pitch":31,"start":60.75,"end":61.0,"velocity":50},{"pitch":31,"start":61.0,"end":61.25,"velocity":50},{"pitch":31,"start":61.25,"end":62.0,"velocity":83},{"pitch":31,"start":62.0,"end":62.25,"velocity":111},{"pitch":31,"start":62.25,"end":62.75,"velocity":112},{"pitch":31,"start":62.75,"end":63.0,"velocity":111},{"pitch":31,"start":63.0,"end":63.25,"velocity":112},{"pitch":31,"start":63.25,"end":64.0,"velocity":113},{"pitch":31,"start":64.25,"end":64.75,"velocity":108},{"pitch":32,"start":64.75,"end":65.0,"velocity":102},{"pitch":29,"start":65.0,"end":65.25,"velocity":93},{"pitch":29,"start":65.25,"end":66.0,"velocity":50},{"pitch":29,"start":66.0,"end":66.25,"velocity":52},{"pitch":29,"start":66.25,"end":66.75,"velocity":50},{"pitch":29,"start":66.75,"end":67.0,"velocity":50},{"pitch":29,"start":67.0,"end":67.25,"velocity":52},{"pitch":29,"start":67.25,"end":68.0,"velocity":52},{"pitch":29,"start":68.0,"end":68.25,"velocity":50},{"pitch":29,"start":68.25,"end":68.75,"velocity":51},{"pitch":29,"start":68.75,"end":69.0,"velocity":76},{"pitch":29,"start":69.0,"end":69.25,"velocity":84},{"pitch":29,"start":69.25,"end":70.0,"velocity":92},{"pitch":29,"start":70.0,"end":70.25,"velocity":90},{"pitch":29,"start":70.25,"end":70.75,"velocity":90},{"pitch":29,"start":71.0,"end":71.25,"velocity":91},{"pitch":29,"start":71.25,"end":72.0,"velocity":87},{"pitch":29,"start":72.0,"end":72.25,"velocity":88},{"pitch":29,"start":72.25,"end":72.75,"velocity":70},{"pitch":32,"start":72.75,"end":73.0,"velocity":77},{"pitch":31,"start":73.0,"end":73.25,"velocity":55},{"pitch":31,"start":73.25,"end":73.75,"velocity":51},{"pitch":31,"start":73.75,"end":74.25,"velocity":61},{"pitch":31,"start":74.25,"end":74.75,"velocity":59},{"pitch":31,"start":74.75,"end":75.25,"velocity":59},{"pitch":31,"start":75.25,"end":75.75,"velocity":55},{"pitch":29,"start":75.75,"end":76.25,"velocity":67},{"pitch":29,"start":76.25,"end":76.75,"velocity":54},{"pitch":29,"start":76.75,"end":77.25,"velocity":61},{"pitch":29,"start":77.25,"end":77.75,"velocity":61},{"pitch":29,"start":77.75,"end":78.25,"velocity":60},{"pitch":29,"start":78.75,"end":79.25,"velocity":52},{"pitch":31,"start":79.25,"end":79.75,"velocity":67},{"pitch":31,"start":79.75,"end":80.25,"velocity":51},{"pitch":31,"start":80.25,"end":80.75,"velocity":63},{"pitch":31,"start":80.75,"end":81.25,"velocity":59},{"pitch":31,"start":81.25,"end":81.75,"velocity":50},{"pitch":31,"start":81.75,"end":82.25,"velocity":50},{"pitch":31,"start":82.25,"end":82.75,"velocity":50},{"pitch":31,"start":82.75,"end":83.25,"velocity":50},{"pitch":31,"start":83.25,"end":83.75,"velocity":53},{"pitch":31,"start":83.75,"end":84.25,"velocity":50},{"pitch":31,"start":84.25,"end":84.75,"velocity":50},{"pitch":31,"start":84.75,"end":85.25,"velocity":52},{"pitch":31,"start":85.25,"end":85.75,"velocity":53},{"pitch":31,"start":85.75,"end":86.25,"velocity":50},{"pitch":31,"start":86.25,"end":86.75,"velocity":50},{"pitch":31,"start":87.25,"end":87.75,"velocity":50},{"pitch":31,"start":87.75,"end":88.25,"velocity":50},{"pitch":31,"start":88.25,"end":88.75,"velocity":50},{"pitch":31,"start":88.75,"end":89.25,"velocity":50}],"tempo_bpm":93}